<?xml version="1.0" encoding="utf-8"?>
<!-- Generator: Adobe Illustrator 18.1.0, SVG Export Plug-In . SVG Version: 6.00 Build 0)  -->
<!DOCTYPE svg PUBLIC "-//W3C//DTD SVG 1.1//EN" "http://www.w3.org/Graphics/SVG/1.1/DTD/svg11.dtd">
<svg version="1.1" id="Layer_1" xmlns="http://www.w3.org/2000/svg" xmlns:xlink="http://www.w3.org/1999/xlink" x="0px" y="0px"
	 viewBox="0 0 501 127" enable-background="new 0 0 501 127" xml:space="preserve">
<g>
	<g>
		<path d="M300.8,119.2v-10.7h5.3v10.7H300.8z"/>
		<path d="M355.2,82.4c-0.2-2.3-0.8-4.4-1.8-6.2c-1-1.8-2.3-3.3-3.9-4.5c-1.6-1.2-3.4-2.1-5.6-2.7c-2.1-0.6-4.4-0.9-6.8-0.9
			c-3.3,0-6.3,0.7-8.8,2c-2.6,1.3-4.7,3.1-6.4,5.4c-1.7,2.2-3,4.8-3.9,7.7c-0.9,2.9-1.3,5.8-1.3,8.9c0,3.6,0.4,6.9,1.2,9.9
			c0.8,3,2.1,5.7,3.8,7.9c1.7,2.2,3.9,4,6.4,5.2c2.6,1.2,5.6,1.9,9,1.9c2.5,0,4.8-0.4,6.9-1.2c2.1-0.8,4-2,5.6-3.4
			c1.6-1.5,3-3.2,4-5.2c1-2,1.7-4.3,2.1-6.7h3.9c-0.4,3.2-1.3,6-2.6,8.5c-1.3,2.5-3,4.6-5,6.3c-2,1.7-4.2,3-6.7,3.9
			c-2.5,0.9-5.2,1.3-8.1,1.3c-4.4,0-8.1-0.8-11.2-2.3c-3.1-1.6-5.6-3.6-7.6-6.3c-2-2.6-3.4-5.6-4.4-9.1c-0.9-3.4-1.4-7-1.4-10.7
			s0.5-7.3,1.6-10.6c1.1-3.3,2.6-6.2,4.7-8.7c2.1-2.5,4.6-4.5,7.7-5.9c3-1.5,6.5-2.2,10.5-2.2c2.9,0,5.6,0.4,8.1,1.1
			c2.5,0.7,4.8,1.8,6.7,3.3c2,1.5,3.6,3.3,4.8,5.5c1.2,2.2,2,4.8,2.3,7.9H355.2z"/>
		<path d="M365.3,92.6c0-3.8,0.5-7.4,1.6-10.7c1.1-3.3,2.6-6.3,4.7-8.9c2.1-2.6,4.6-4.6,7.7-6.1c3-1.5,6.5-2.2,10.5-2.2
			c3.9,0,7.4,0.7,10.5,2.2c3,1.5,5.6,3.5,7.7,6.1c2.1,2.6,3.6,5.5,4.7,8.9c1.1,3.4,1.6,6.9,1.6,10.7c0,3.8-0.5,7.4-1.6,10.8
			c-1.1,3.4-2.6,6.3-4.7,8.9c-2.1,2.5-4.6,4.5-7.7,6c-3,1.5-6.5,2.2-10.5,2.2c-3.9,0-7.4-0.7-10.5-2.2c-3-1.5-5.6-3.5-7.7-6
			c-2.1-2.5-3.7-5.5-4.7-8.9C365.9,99.9,365.3,96.4,365.3,92.6z M369.3,92.6c0,3.2,0.4,6.2,1.3,9.2c0.9,2.9,2.2,5.5,3.9,7.8
			c1.7,2.3,3.9,4.1,6.4,5.4c2.6,1.3,5.5,2,8.8,2s6.3-0.7,8.8-2c2.6-1.3,4.7-3.2,6.4-5.4c1.7-2.3,3-4.9,3.9-7.8
			c0.9-2.9,1.3-6,1.3-9.2c0-3.2-0.5-6.2-1.3-9.2c-0.9-2.9-2.2-5.5-3.9-7.8c-1.7-2.3-3.9-4.1-6.4-5.4c-2.6-1.3-5.5-2-8.8-2
			s-6.3,0.7-8.8,2c-2.6,1.3-4.7,3.2-6.4,5.4c-1.7,2.3-3,4.9-3.9,7.8C369.7,86.3,369.3,89.4,369.3,92.6z"/>
		<path d="M422.6,65.9h3.9v10.9h0.2c0.4-1.7,1.1-3.2,2.2-4.7c1-1.5,2.3-2.8,3.8-3.9c1.5-1.1,3.1-2,5-2.6c1.8-0.6,3.8-0.9,5.8-0.9
			c2.6,0,4.8,0.3,6.6,1c1.9,0.7,3.5,1.5,4.8,2.6c1.3,1.1,2.4,2.3,3.1,3.6c0.8,1.3,1.3,2.7,1.6,4.1h0.2c1.6-3.7,3.7-6.5,6.4-8.4
			c2.7-1.9,6.2-2.9,10.5-2.9c2.4,0,4.7,0.4,6.7,1.1c2,0.7,3.8,1.8,5.3,3.3c1.5,1.5,2.6,3.4,3.5,5.6c0.8,2.3,1.2,5,1.2,8.1v36.4h-3.9
			V82.7c0-3.4-0.5-6-1.6-8c-1-1.9-2.3-3.4-3.7-4.4c-1.4-1-2.8-1.6-4.3-1.9c-1.4-0.2-2.5-0.4-3.3-0.4c-2.4,0-4.7,0.4-6.7,1.2
			c-2,0.8-3.8,2.1-5.3,3.7c-1.5,1.7-2.6,3.7-3.5,6.2c-0.8,2.5-1.2,5.3-1.2,8.4v31.5h-3.9V82.7c0-3.3-0.5-6-1.5-7.9
			c-1-2-2.2-3.4-3.5-4.4c-1.3-1-2.7-1.6-4.2-1.9c-1.4-0.3-2.5-0.4-3.4-0.4c-1.9,0-3.8,0.4-5.8,1.1c-2,0.8-3.8,1.9-5.5,3.5
			c-1.7,1.6-3,3.6-4,6.1c-1,2.5-1.6,5.4-1.6,8.8v31.5h-3.9V65.9z"/>
	</g>
	<g>
		<path d="M169.5,11.1c-5.7,3-7.8,8-7.8,21.8c0,0,2.9-2.8,7.1-4.3c3.1-1.1,5.7-2.8,7.3-3.9c4.8-3.5,5.5-8,5.5-15.6
			C181.6,9,173.8,8.8,169.5,11.1z"/>
		<path d="M136,14.3c-4.6,4.1-6,10.5-6,10.5L114.7,84l-12.7-48.4c-1.2-5.1-3.5-11.5-7-15.8c-4.5-5.5-13.6-5.8-14.6-5.8
			c-1,0-10.1,0.3-14.6,5.8c-3.5,4.3-5.8,10.7-7,15.8L46.2,84L30.9,24.8c0,0-1.3-6.5-6-10.5C17.5,7.7,6.3,9.1,6.3,9.1l29.2,110.5
			c0,0,9.6,0.7,14.5-1.8c6.3-3.2,9.4-5.7,13.2-20.8c3.4-13.4,13-52.8,13.9-55.6c0.4-1.4,1-4.7,3.4-4.7c2.5,0,3,3.3,3.4,4.7
			c0.9,2.8,10.4,42.2,13.9,55.6c3.8,15,6.9,17.5,13.2,20.8c4.8,2.5,14.5,1.8,14.5,1.8L154.6,9.1C154.6,9.1,143.4,7.7,136,14.3z"/>
		<path d="M181.6,27.2c0,0-1.8,2.8-6,5.2c-2.7,1.5-5.2,2.5-8,3.8c-4.6,2.2-5.9,4.7-5.9,8.5v1.3v5.8v0.2v1.3v66.5
			c0,0,7.4,0.9,12.2-1.5c6.2-3.2,7.6-6.2,7.7-20v-67c0,0,0,0,0,0V27.2z"/>
		<path d="M254.4,64.6l37.1-55.1c0,0-15.6-2.7-23.4,4.4c-5,4.5-10.5,12.6-10.5,12.6L244,46.2c-0.7,1-1.5,2.1-2.9,2.1
			c-1.4,0-2.3-1.1-2.9-2.1l-13.6-19.7c0,0-5.5-8.1-10.5-12.6c-7.7-7.1-23.4-4.4-23.4-4.4l37.1,55.1l-37,55c0,0,16.3,2.1,24-5
			c5-4.5,9.8-11.9,9.8-11.9l13.6-19.7c0.7-1,1.5-2.1,2.9-2.1c1.4,0,2.3,1.1,2.9,2.1l13.6,19.7c0,0,5.1,7.3,10,11.9
			c7.7,7.1,23.8,5,23.8,5L254.4,64.6z"/>
	</g>
</g>
</svg>
